<svg xmlns="http://www.w3.org/2000/svg" width="69" height="53" viewBox="0 0 69 53"><defs><filter id="a" width="93.2" height="77.2" x="-12.1" y="-12.1" filterUnits="userSpaceOnUse"><feOffset in="SourceGraphic" result="FeOffset1297Out"/><feGaussianBlur in="FeOffset1297Out" result="FeGaussianBlur1298Out" stdDeviation="3.44 3.44"/></filter><mask id="b" width="2.02" height="2.03" x="-1.01" y="-1.01"><path fill="#fff" d="M6.5 6.5h56v40h-56z"/><path d="M6.998 44.044c0-1.79.43-3.447 1.29-4.974a9.655 9.655 0 013.517-3.617 9.28 9.28 0 014.835-1.328h3.68l-1.78 2.335h-1.9a7.01 7.01 0 00-3.7 1.021 7.544 7.544 0 00-2.68 2.756c-.661 1.158-.992 2.428-.992 3.807v1.954h-2.27zm7.085-13.978a5.83 5.83 0 01-2.07-2.116c-.51-.884-.765-1.862-.765-2.932 0-1.05.255-2.02.765-2.917a5.794 5.794 0 012.07-2.128 5.385 5.385 0 012.836-.79c1.02 0 1.965.264 2.835.79a5.8 5.8 0 012.07 2.128c.51.896.765 1.867.765 2.917 0 1.07-.255 2.048-.765 2.932a5.84 5.84 0 01-2.07 2.116 5.39 5.39 0 01-2.835.787 5.37 5.37 0 01-2.836-.787zm5.245-2.568c.662-.68.993-1.506.993-2.48 0-.972-.331-1.798-.993-2.48a3.237 3.237 0 00-2.41-1.021c-.927 0-1.725.342-2.397 1.022-.67.68-1.006 1.507-1.006 2.48 0 .973.33 1.798.993 2.48a3.233 3.233 0 002.41 1.02 3.23 3.23 0 002.41-1.02zm-.142 14.51c0-1.79.43-3.448 1.291-4.974a9.64 9.64 0 013.516-3.618 9.266 9.266 0 014.835-1.328h11.343c1.74 0 3.35.443 4.835 1.328a9.654 9.654 0 013.517 3.618 9.961 9.961 0 011.29 4.973V46h-2.268v-3.992c0-1.38-.331-2.649-.993-3.807a7.556 7.556 0 00-2.68-2.756 7.015 7.015 0 00-3.7-1.022H28.828a7.011 7.011 0 00-3.7 1.022 7.54 7.54 0 00-2.68 2.756c-.662 1.158-.993 2.427-.993 3.807V46h-2.269zM29.665 25.51a9.652 9.652 0 01-3.517-3.617 9.964 9.964 0 01-1.29-4.974c0-1.79.43-3.447 1.29-4.974a9.646 9.646 0 013.517-3.617A9.277 9.277 0 0134.499 7a9.28 9.28 0 014.835 1.328 9.655 9.655 0 013.517 3.617 9.967 9.967 0 011.29 4.973c0 1.79-.43 3.449-1.29 4.975a9.661 9.661 0 01-3.517 3.617 9.272 9.272 0 01-4.835 1.327 9.263 9.263 0 01-4.834-1.327zm8.535-2.028a7.546 7.546 0 002.68-2.757c.662-1.157.993-2.426.993-3.807 0-1.38-.331-2.65-.993-3.805a7.55 7.55 0 00-2.68-2.758 7.017 7.017 0 00-3.7-1.021c-1.343 0-2.576.34-3.7 1.021a7.544 7.544 0 00-2.68 2.758c-.662 1.157-.993 2.425-.993 3.805 0 1.381.33 2.65.993 3.807a7.546 7.546 0 002.68 2.757 7.012 7.012 0 003.7 1.02 7.009 7.009 0 003.7-1.02zm11.046 6.583a5.84 5.84 0 01-2.07-2.116 5.764 5.764 0 01-.766-2.932c0-1.05.256-2.02.766-2.917a5.803 5.803 0 012.07-2.128 5.386 5.386 0 012.835-.79c1.02 0 1.966.264 2.836.79a5.803 5.803 0 012.07 2.128c.51.896.766 1.867.766 2.917 0 1.07-.256 2.048-.766 2.932a5.84 5.84 0 01-2.07 2.116 5.39 5.39 0 01-2.836.787 5.384 5.384 0 01-2.835-.787zm5.246-2.568c.661-.68.993-1.506.993-2.48 0-.972-.332-1.798-.993-2.48-.662-.68-1.466-1.021-2.41-1.021-.928 0-1.726.342-2.397 1.022-.67.68-1.006 1.507-1.006 2.48 0 .973.33 1.798.992 2.48a3.235 3.235 0 002.411 1.02c.944 0 1.747-.339 2.41-1.02zm5.241 16.546c0-1.38-.331-2.649-.993-3.807a7.55 7.55 0 00-2.68-2.756 7.018 7.018 0 00-3.7-1.021h-1.9l-1.781-2.334h3.68c1.74 0 3.352.443 4.836 1.327a9.66 9.66 0 013.516 3.618 9.967 9.967 0 011.29 4.974v1.953h-2.268z"/></mask></defs><g filter="url(#a)"><path fill="none" stroke="#21b784" stroke-opacity=".9" d="M6.998 44.044c0-1.79.43-3.447 1.29-4.974a9.655 9.655 0 013.517-3.617 9.28 9.28 0 014.835-1.328h3.68l-1.78 2.335h-1.9a7.01 7.01 0 00-3.7 1.021 7.544 7.544 0 00-2.68 2.756c-.661 1.158-.992 2.428-.992 3.807v1.954h-2.27zm7.085-13.978a5.83 5.83 0 01-2.07-2.116c-.51-.884-.765-1.862-.765-2.932 0-1.05.255-2.02.765-2.917a5.794 5.794 0 012.07-2.128 5.385 5.385 0 012.836-.79c1.02 0 1.965.264 2.835.79a5.8 5.8 0 012.07 2.128c.51.896.765 1.867.765 2.917 0 1.07-.255 2.048-.765 2.932a5.84 5.84 0 01-2.07 2.116 5.39 5.39 0 01-2.835.787 5.37 5.37 0 01-2.836-.787zm5.245-2.568c.662-.68.993-1.506.993-2.48 0-.972-.331-1.798-.993-2.48a3.237 3.237 0 00-2.41-1.021c-.927 0-1.725.342-2.397 1.022-.67.68-1.006 1.507-1.006 2.48 0 .973.33 1.798.993 2.48a3.233 3.233 0 002.41 1.02 3.23 3.23 0 002.41-1.02zm-.142 14.51c0-1.79.43-3.448 1.291-4.974a9.64 9.64 0 013.516-3.618 9.266 9.266 0 014.835-1.328h11.343c1.74 0 3.35.443 4.835 1.328a9.654 9.654 0 013.517 3.618 9.961 9.961 0 011.29 4.973V46h-2.268v-3.992c0-1.38-.331-2.649-.993-3.807a7.556 7.556 0 00-2.68-2.756 7.015 7.015 0 00-3.7-1.022H28.828a7.011 7.011 0 00-3.7 1.022 7.54 7.54 0 00-2.68 2.756c-.662 1.158-.993 2.427-.993 3.807V46h-2.269zM29.665 25.51a9.652 9.652 0 01-3.517-3.617 9.964 9.964 0 01-1.29-4.974c0-1.79.43-3.447 1.29-4.974a9.646 9.646 0 013.517-3.617A9.277 9.277 0 0134.499 7a9.28 9.28 0 014.835 1.328 9.655 9.655 0 013.517 3.617 9.967 9.967 0 011.29 4.973c0 1.79-.43 3.449-1.29 4.975a9.661 9.661 0 01-3.517 3.617 9.272 9.272 0 01-4.835 1.327 9.263 9.263 0 01-4.834-1.327zm8.535-2.028a7.546 7.546 0 002.68-2.757c.662-1.157.993-2.426.993-3.807 0-1.38-.331-2.65-.993-3.805a7.55 7.55 0 00-2.68-2.758 7.017 7.017 0 00-3.7-1.021c-1.343 0-2.576.34-3.7 1.021a7.544 7.544 0 00-2.68 2.758c-.662 1.157-.993 2.425-.993 3.805 0 1.381.33 2.65.993 3.807a7.546 7.546 0 002.68 2.757 7.012 7.012 0 003.7 1.02 7.009 7.009 0 003.7-1.02zm11.046 6.583a5.84 5.84 0 01-2.07-2.116 5.764 5.764 0 01-.766-2.932c0-1.05.256-2.02.766-2.917a5.803 5.803 0 012.07-2.128 5.386 5.386 0 012.835-.79c1.02 0 1.966.264 2.836.79a5.803 5.803 0 012.07 2.128c.51.896.766 1.867.766 2.917 0 1.07-.256 2.048-.766 2.932a5.84 5.84 0 01-2.07 2.116 5.39 5.39 0 01-2.836.787 5.384 5.384 0 01-2.835-.787zm5.246-2.568c.661-.68.993-1.506.993-2.48 0-.972-.332-1.798-.993-2.48-.662-.68-1.466-1.021-2.41-1.021-.928 0-1.726.342-2.397 1.022-.67.68-1.006 1.507-1.006 2.48 0 .973.33 1.798.992 2.48a3.235 3.235 0 002.411 1.02c.944 0 1.747-.339 2.41-1.02zm5.241 16.546c0-1.38-.331-2.649-.993-3.807a7.55 7.55 0 00-2.68-2.756 7.018 7.018 0 00-3.7-1.021h-1.9l-1.781-2.334h3.68c1.74 0 3.352.443 4.836 1.327a9.66 9.66 0 013.516 3.618 9.967 9.967 0 011.29 4.974v1.953h-2.268z" mask="url(&quot;#b&quot;)"/><path fill="#21b784" fill-opacity=".9" d="M6.998 44.044c0-1.79.43-3.447 1.29-4.974a9.655 9.655 0 013.517-3.617 9.28 9.28 0 014.835-1.328h3.68l-1.78 2.335h-1.9a7.01 7.01 0 00-3.7 1.021 7.544 7.544 0 00-2.68 2.756c-.661 1.158-.992 2.428-.992 3.807v1.954h-2.27zm7.085-13.978a5.83 5.83 0 01-2.07-2.116c-.51-.884-.765-1.862-.765-2.932 0-1.05.255-2.02.765-2.917a5.794 5.794 0 012.07-2.128 5.385 5.385 0 012.836-.79c1.02 0 1.965.264 2.835.79a5.8 5.8 0 012.07 2.128c.51.896.765 1.867.765 2.917 0 1.07-.255 2.048-.765 2.932a5.84 5.84 0 01-2.07 2.116 5.39 5.39 0 01-2.835.787 5.37 5.37 0 01-2.836-.787zm5.245-2.568c.662-.68.993-1.506.993-2.48 0-.972-.331-1.798-.993-2.48a3.237 3.237 0 00-2.41-1.021c-.927 0-1.725.342-2.397 1.022-.67.68-1.006 1.507-1.006 2.48 0 .973.33 1.798.993 2.48a3.233 3.233 0 002.41 1.02 3.23 3.23 0 002.41-1.02zm-.142 14.51c0-1.79.43-3.448 1.291-4.974a9.64 9.64 0 013.516-3.618 9.266 9.266 0 014.835-1.328h11.343c1.74 0 3.35.443 4.835 1.328a9.654 9.654 0 013.517 3.618 9.961 9.961 0 011.29 4.973V46h-2.268v-3.992c0-1.38-.331-2.649-.993-3.807a7.556 7.556 0 00-2.68-2.756 7.015 7.015 0 00-3.7-1.022H28.828a7.011 7.011 0 00-3.7 1.022 7.54 7.54 0 00-2.68 2.756c-.662 1.158-.993 2.427-.993 3.807V46h-2.269zM29.665 25.51a9.652 9.652 0 01-3.517-3.617 9.964 9.964 0 01-1.29-4.974c0-1.79.43-3.447 1.29-4.974a9.646 9.646 0 013.517-3.617A9.277 9.277 0 0134.499 7a9.28 9.28 0 014.835 1.328 9.655 9.655 0 013.517 3.617 9.967 9.967 0 011.29 4.973c0 1.79-.43 3.449-1.29 4.975a9.661 9.661 0 01-3.517 3.617 9.272 9.272 0 01-4.835 1.327 9.263 9.263 0 01-4.834-1.327zm8.535-2.028a7.546 7.546 0 002.68-2.757c.662-1.157.993-2.426.993-3.807 0-1.38-.331-2.65-.993-3.805a7.55 7.55 0 00-2.68-2.758 7.017 7.017 0 00-3.7-1.021c-1.343 0-2.576.34-3.7 1.021a7.544 7.544 0 00-2.68 2.758c-.662 1.157-.993 2.425-.993 3.805 0 1.381.33 2.65.993 3.807a7.546 7.546 0 002.68 2.757 7.012 7.012 0 003.7 1.02 7.009 7.009 0 003.7-1.02zm11.046 6.583a5.84 5.84 0 01-2.07-2.116 5.764 5.764 0 01-.766-2.932c0-1.05.256-2.02.766-2.917a5.803 5.803 0 012.07-2.128 5.386 5.386 0 012.835-.79c1.02 0 1.966.264 2.836.79a5.803 5.803 0 012.07 2.128c.51.896.766 1.867.766 2.917 0 1.07-.256 2.048-.766 2.932a5.84 5.84 0 01-2.07 2.116 5.39 5.39 0 01-2.836.787 5.384 5.384 0 01-2.835-.787zm5.246-2.568c.661-.68.993-1.506.993-2.48 0-.972-.332-1.798-.993-2.48-.662-.68-1.466-1.021-2.41-1.021-.928 0-1.726.342-2.397 1.022-.67.68-1.006 1.507-1.006 2.48 0 .973.33 1.798.992 2.48a3.235 3.235 0 002.411 1.02c.944 0 1.747-.339 2.41-1.02zm5.241 16.546c0-1.38-.331-2.649-.993-3.807a7.55 7.55 0 00-2.68-2.756 7.018 7.018 0 00-3.7-1.021h-1.9l-1.781-2.334h3.68c1.74 0 3.352.443 4.836 1.327a9.66 9.66 0 013.516 3.618 9.967 9.967 0 011.29 4.974v1.953h-2.268z"/></g><g filter="url(#a)"><path fill="none" stroke="#21b784" stroke-opacity=".9" d="M6.998 44.044c0-1.79.43-3.447 1.29-4.974a9.655 9.655 0 013.517-3.617 9.28 9.28 0 014.835-1.328h3.68l-1.78 2.335h-1.9a7.01 7.01 0 00-3.7 1.021 7.544 7.544 0 00-2.68 2.756c-.661 1.158-.992 2.428-.992 3.807v1.954h-2.27zm7.085-13.978a5.83 5.83 0 01-2.07-2.116c-.51-.884-.765-1.862-.765-2.932 0-1.05.255-2.02.765-2.917a5.794 5.794 0 012.07-2.128 5.385 5.385 0 012.836-.79c1.02 0 1.965.264 2.835.79a5.8 5.8 0 012.07 2.128c.51.896.765 1.867.765 2.917 0 1.07-.255 2.048-.765 2.932a5.84 5.84 0 01-2.07 2.116 5.39 5.39 0 01-2.835.787 5.37 5.37 0 01-2.836-.787zm5.245-2.568c.662-.68.993-1.506.993-2.48 0-.972-.331-1.798-.993-2.48a3.237 3.237 0 00-2.41-1.021c-.927 0-1.725.342-2.397 1.022-.67.68-1.006 1.507-1.006 2.48 0 .973.33 1.798.993 2.48a3.233 3.233 0 002.41 1.02 3.23 3.23 0 002.41-1.02zm-.142 14.51c0-1.79.43-3.448 1.291-4.974a9.64 9.64 0 013.516-3.618 9.266 9.266 0 014.835-1.328h11.343c1.74 0 3.35.443 4.835 1.328a9.654 9.654 0 013.517 3.618 9.961 9.961 0 011.29 4.973V46h-2.268v-3.992c0-1.38-.331-2.649-.993-3.807a7.556 7.556 0 00-2.68-2.756 7.015 7.015 0 00-3.7-1.022H28.828a7.011 7.011 0 00-3.7 1.022 7.54 7.54 0 00-2.68 2.756c-.662 1.158-.993 2.427-.993 3.807V46h-2.269zM29.665 25.51a9.652 9.652 0 01-3.517-3.617 9.964 9.964 0 01-1.29-4.974c0-1.79.43-3.447 1.29-4.974a9.646 9.646 0 013.517-3.617A9.277 9.277 0 0134.499 7a9.28 9.28 0 014.835 1.328 9.655 9.655 0 013.517 3.617 9.967 9.967 0 011.29 4.973c0 1.79-.43 3.449-1.29 4.975a9.661 9.661 0 01-3.517 3.617 9.272 9.272 0 01-4.835 1.327 9.263 9.263 0 01-4.834-1.327zm8.535-2.028a7.546 7.546 0 002.68-2.757c.662-1.157.993-2.426.993-3.807 0-1.38-.331-2.65-.993-3.805a7.55 7.55 0 00-2.68-2.758 7.017 7.017 0 00-3.7-1.021c-1.343 0-2.576.34-3.7 1.021a7.544 7.544 0 00-2.68 2.758c-.662 1.157-.993 2.425-.993 3.805 0 1.381.33 2.65.993 3.807a7.546 7.546 0 002.68 2.757 7.012 7.012 0 003.7 1.02 7.009 7.009 0 003.7-1.02zm11.046 6.583a5.84 5.84 0 01-2.07-2.116 5.764 5.764 0 01-.766-2.932c0-1.05.256-2.02.766-2.917a5.803 5.803 0 012.07-2.128 5.386 5.386 0 012.835-.79c1.02 0 1.966.264 2.836.79a5.803 5.803 0 012.07 2.128c.51.896.766 1.867.766 2.917 0 1.07-.256 2.048-.766 2.932a5.84 5.84 0 01-2.07 2.116 5.39 5.39 0 01-2.836.787 5.384 5.384 0 01-2.835-.787zm5.246-2.568c.661-.68.993-1.506.993-2.48 0-.972-.332-1.798-.993-2.48-.662-.68-1.466-1.021-2.41-1.021-.928 0-1.726.342-2.397 1.022-.67.68-1.006 1.507-1.006 2.48 0 .973.33 1.798.992 2.48a3.235 3.235 0 002.411 1.02c.944 0 1.747-.339 2.41-1.02zm5.241 16.546c0-1.38-.331-2.649-.993-3.807a7.55 7.55 0 00-2.68-2.756 7.018 7.018 0 00-3.7-1.021h-1.9l-1.781-2.334h3.68c1.74 0 3.352.443 4.836 1.327a9.66 9.66 0 013.516 3.618 9.967 9.967 0 011.29 4.974v1.953h-2.268z" mask="url(&quot;#b&quot;)"/><path fill="#21b784" fill-opacity=".9" d="M6.998 44.044c0-1.79.43-3.447 1.29-4.974a9.655 9.655 0 013.517-3.617 9.28 9.28 0 014.835-1.328h3.68l-1.78 2.335h-1.9a7.01 7.01 0 00-3.7 1.021 7.544 7.544 0 00-2.68 2.756c-.661 1.158-.992 2.428-.992 3.807v1.954h-2.27zm7.085-13.978a5.83 5.83 0 01-2.07-2.116c-.51-.884-.765-1.862-.765-2.932 0-1.05.255-2.02.765-2.917a5.794 5.794 0 012.07-2.128 5.385 5.385 0 012.836-.79c1.02 0 1.965.264 2.835.79a5.8 5.8 0 012.07 2.128c.51.896.765 1.867.765 2.917 0 1.07-.255 2.048-.765 2.932a5.84 5.84 0 01-2.07 2.116 5.39 5.39 0 01-2.835.787 5.37 5.37 0 01-2.836-.787zm5.245-2.568c.662-.68.993-1.506.993-2.48 0-.972-.331-1.798-.993-2.48a3.237 3.237 0 00-2.41-1.021c-.927 0-1.725.342-2.397 1.022-.67.68-1.006 1.507-1.006 2.48 0 .973.33 1.798.993 2.48a3.233 3.233 0 002.41 1.02 3.23 3.23 0 002.41-1.02zm-.142 14.51c0-1.79.43-3.448 1.291-4.974a9.64 9.64 0 013.516-3.618 9.266 9.266 0 014.835-1.328h11.343c1.74 0 3.35.443 4.835 1.328a9.654 9.654 0 013.517 3.618 9.961 9.961 0 011.29 4.973V46h-2.268v-3.992c0-1.38-.331-2.649-.993-3.807a7.556 7.556 0 00-2.68-2.756 7.015 7.015 0 00-3.7-1.022H28.828a7.011 7.011 0 00-3.7 1.022 7.54 7.54 0 00-2.68 2.756c-.662 1.158-.993 2.427-.993 3.807V46h-2.269zM29.665 25.51a9.652 9.652 0 01-3.517-3.617 9.964 9.964 0 01-1.29-4.974c0-1.79.43-3.447 1.29-4.974a9.646 9.646 0 013.517-3.617A9.277 9.277 0 0134.499 7a9.28 9.28 0 014.835 1.328 9.655 9.655 0 013.517 3.617 9.967 9.967 0 011.29 4.973c0 1.79-.43 3.449-1.29 4.975a9.661 9.661 0 01-3.517 3.617 9.272 9.272 0 01-4.835 1.327 9.263 9.263 0 01-4.834-1.327zm8.535-2.028a7.546 7.546 0 002.68-2.757c.662-1.157.993-2.426.993-3.807 0-1.38-.331-2.65-.993-3.805a7.55 7.55 0 00-2.68-2.758 7.017 7.017 0 00-3.7-1.021c-1.343 0-2.576.34-3.7 1.021a7.544 7.544 0 00-2.68 2.758c-.662 1.157-.993 2.425-.993 3.805 0 1.381.33 2.65.993 3.807a7.546 7.546 0 002.68 2.757 7.012 7.012 0 003.7 1.02 7.009 7.009 0 003.7-1.02zm11.046 6.583a5.84 5.84 0 01-2.07-2.116 5.764 5.764 0 01-.766-2.932c0-1.05.256-2.02.766-2.917a5.803 5.803 0 012.07-2.128 5.386 5.386 0 012.835-.79c1.02 0 1.966.264 2.836.79a5.803 5.803 0 012.07 2.128c.51.896.766 1.867.766 2.917 0 1.07-.256 2.048-.766 2.932a5.84 5.84 0 01-2.07 2.116 5.39 5.39 0 01-2.836.787 5.384 5.384 0 01-2.835-.787zm5.246-2.568c.661-.68.993-1.506.993-2.48 0-.972-.332-1.798-.993-2.48-.662-.68-1.466-1.021-2.41-1.021-.928 0-1.726.342-2.397 1.022-.67.68-1.006 1.507-1.006 2.48 0 .973.33 1.798.992 2.48a3.235 3.235 0 002.411 1.02c.944 0 1.747-.339 2.41-1.02zm5.241 16.546c0-1.38-.331-2.649-.993-3.807a7.55 7.55 0 00-2.68-2.756 7.018 7.018 0 00-3.7-1.021h-1.9l-1.781-2.334h3.68c1.74 0 3.352.443 4.836 1.327a9.66 9.66 0 013.516 3.618 9.967 9.967 0 011.29 4.974v1.953h-2.268z"/></g><path fill="#fff" d="M6.998 44.044c0-1.79.43-3.447 1.29-4.974a9.655 9.655 0 013.517-3.617 9.28 9.28 0 014.835-1.328h3.68l-1.78 2.335h-1.9a7.01 7.01 0 00-3.7 1.021 7.544 7.544 0 00-2.68 2.756c-.661 1.158-.992 2.428-.992 3.807v1.954h-2.27zm7.085-13.978a5.83 5.83 0 01-2.07-2.116c-.51-.884-.765-1.862-.765-2.932 0-1.05.255-2.02.765-2.917a5.794 5.794 0 012.07-2.128 5.385 5.385 0 012.836-.79c1.02 0 1.965.264 2.835.79a5.8 5.8 0 012.07 2.128c.51.896.765 1.867.765 2.917 0 1.07-.255 2.048-.765 2.932a5.84 5.84 0 01-2.07 2.116 5.39 5.39 0 01-2.835.787 5.37 5.37 0 01-2.836-.787zm5.245-2.568c.662-.68.993-1.506.993-2.48 0-.972-.331-1.798-.993-2.48a3.237 3.237 0 00-2.41-1.021c-.927 0-1.725.342-2.397 1.022-.67.68-1.006 1.507-1.006 2.48 0 .973.33 1.798.993 2.48a3.233 3.233 0 002.41 1.02 3.23 3.23 0 002.41-1.02zm-.142 14.51c0-1.79.43-3.448 1.291-4.974a9.64 9.64 0 013.516-3.618 9.266 9.266 0 014.835-1.328h11.343c1.74 0 3.35.443 4.835 1.328a9.654 9.654 0 013.517 3.618 9.961 9.961 0 011.29 4.973V46h-2.268v-3.992c0-1.38-.331-2.649-.993-3.807a7.556 7.556 0 00-2.68-2.756 7.015 7.015 0 00-3.7-1.022H28.828a7.011 7.011 0 00-3.7 1.022 7.54 7.54 0 00-2.68 2.756c-.662 1.158-.993 2.427-.993 3.807V46h-2.269zM29.665 25.51a9.652 9.652 0 01-3.517-3.617 9.964 9.964 0 01-1.29-4.974c0-1.79.43-3.447 1.29-4.974a9.646 9.646 0 013.517-3.617A9.277 9.277 0 0134.499 7a9.28 9.28 0 014.835 1.328 9.655 9.655 0 013.517 3.617 9.967 9.967 0 011.29 4.973c0 1.79-.43 3.449-1.29 4.975a9.661 9.661 0 01-3.517 3.617 9.272 9.272 0 01-4.835 1.327 9.263 9.263 0 01-4.834-1.327zm8.535-2.028a7.546 7.546 0 002.68-2.757c.662-1.157.993-2.426.993-3.807 0-1.38-.331-2.65-.993-3.805a7.55 7.55 0 00-2.68-2.758 7.017 7.017 0 00-3.7-1.021c-1.343 0-2.576.34-3.7 1.021a7.544 7.544 0 00-2.68 2.758c-.662 1.157-.993 2.425-.993 3.805 0 1.381.33 2.65.993 3.807a7.546 7.546 0 002.68 2.757 7.012 7.012 0 003.7 1.02 7.009 7.009 0 003.7-1.02zm11.046 6.583a5.84 5.84 0 01-2.07-2.116 5.764 5.764 0 01-.766-2.932c0-1.05.256-2.02.766-2.917a5.803 5.803 0 012.07-2.128 5.386 5.386 0 012.835-.79c1.02 0 1.966.264 2.836.79a5.803 5.803 0 012.07 2.128c.51.896.766 1.867.766 2.917 0 1.07-.256 2.048-.766 2.932a5.84 5.84 0 01-2.07 2.116 5.39 5.39 0 01-2.836.787 5.384 5.384 0 01-2.835-.787zm5.246-2.568c.661-.68.993-1.506.993-2.48 0-.972-.332-1.798-.993-2.48-.662-.68-1.466-1.021-2.41-1.021-.928 0-1.726.342-2.397 1.022-.67.68-1.006 1.507-1.006 2.48 0 .973.33 1.798.992 2.48a3.235 3.235 0 002.411 1.02c.944 0 1.747-.339 2.41-1.02zm5.241 16.546c0-1.38-.331-2.649-.993-3.807a7.55 7.55 0 00-2.68-2.756 7.018 7.018 0 00-3.7-1.021h-1.9l-1.781-2.334h3.68c1.74 0 3.352.443 4.836 1.327a9.66 9.66 0 013.516 3.618 9.967 9.967 0 011.29 4.974v1.953h-2.268z"/></svg>