<svg xmlns="http://www.w3.org/2000/svg" width="43" height="59" viewBox="0 0 43 59"><defs><filter id="a" width="67.2" height="83.2" x="-12.1" y="-12.1" filterUnits="userSpaceOnUse"><feOffset in="SourceGraphic" result="FeOffset1271Out"/><feGaussianBlur in="FeOffset1271Out" result="FeGaussianBlur1272Out" stdDeviation="3.44 3.44"/></filter><mask id="b" width="2.03" height="2.02" x="-1.02" y="-1.01"><path fill="#fff" d="M6.5 6.5h30v46h-30z"/><path d="M36 7v45l-14.5-9.755L7 52V7zM8.706 48.825L21.5 40.217l12.796 8.608V8.673H8.705zm21.262-32.973a.825.825 0 01-.187.925L14.422 31.804a.865.865 0 01-.83.228.844.844 0 01-.61-.599.825.825 0 01.238-.812l15.35-15.022a.865.865 0 01.586-.254c.35-.01.673.191.811.506zm-10.174 2.84c0 1.834-1.538 3.341-3.411 3.341-1.874 0-3.414-1.507-3.414-3.34 0-1.835 1.54-3.34 3.414-3.34 1.873 0 3.411 1.505 3.411 3.34zm-5.12 0c0 .932.757 1.67 1.709 1.67.951 0 1.705-.738 1.705-1.67 0-.932-.754-1.669-1.705-1.669-.952 0-1.708.737-1.708 1.67zm15.359 10.02c0 1.835-1.54 3.335-3.413 3.335-1.874 0-3.412-1.5-3.412-3.334 0-1.835 1.538-3.34 3.412-3.34 1.873 0 3.413 1.505 3.413 3.34zm-5.12 0c0 .932.755 1.663 1.707 1.663.952 0 1.707-.73 1.707-1.662 0-.933-.755-1.671-1.707-1.671-.952 0-1.706.738-1.706 1.67z"/></mask></defs><g filter="url(#a)"><path fill="none" stroke="#21b784" stroke-opacity=".9" d="M36 7v45l-14.5-9.755L7 52V7zM8.706 48.825L21.5 40.217l12.796 8.608V8.673H8.705zm21.262-32.973a.825.825 0 01-.187.925L14.422 31.804a.865.865 0 01-.83.228.844.844 0 01-.61-.599.825.825 0 01.238-.812l15.35-15.022a.865.865 0 01.586-.254c.35-.01.673.191.811.506zm-10.174 2.84c0 1.834-1.538 3.341-3.411 3.341-1.874 0-3.414-1.507-3.414-3.34 0-1.835 1.54-3.34 3.414-3.34 1.873 0 3.411 1.505 3.411 3.34zm-5.12 0c0 .932.757 1.67 1.709 1.67.951 0 1.705-.738 1.705-1.67 0-.932-.754-1.669-1.705-1.669-.952 0-1.708.737-1.708 1.67zm15.359 10.02c0 1.835-1.54 3.335-3.413 3.335-1.874 0-3.412-1.5-3.412-3.334 0-1.835 1.538-3.34 3.412-3.34 1.873 0 3.413 1.505 3.413 3.34zm-5.12 0c0 .932.755 1.663 1.707 1.663.952 0 1.707-.73 1.707-1.662 0-.933-.755-1.671-1.707-1.671-.952 0-1.706.738-1.706 1.67z" mask="url(&quot;#b&quot;)"/><path fill="#21b784" fill-opacity=".9" d="M36 7v45l-14.5-9.755L7 52V7zM8.706 48.825L21.5 40.217l12.796 8.608V8.673H8.705zm21.262-32.973a.825.825 0 01-.187.925L14.422 31.804a.865.865 0 01-.83.228.844.844 0 01-.61-.599.825.825 0 01.238-.812l15.35-15.022a.865.865 0 01.586-.254c.35-.01.673.191.811.506zm-10.174 2.84c0 1.834-1.538 3.341-3.411 3.341-1.874 0-3.414-1.507-3.414-3.34 0-1.835 1.54-3.34 3.414-3.34 1.873 0 3.411 1.505 3.411 3.34zm-5.12 0c0 .932.757 1.67 1.709 1.67.951 0 1.705-.738 1.705-1.67 0-.932-.754-1.669-1.705-1.669-.952 0-1.708.737-1.708 1.67zm15.359 10.02c0 1.835-1.54 3.335-3.413 3.335-1.874 0-3.412-1.5-3.412-3.334 0-1.835 1.538-3.34 3.412-3.34 1.873 0 3.413 1.505 3.413 3.34zm-5.12 0c0 .932.755 1.663 1.707 1.663.952 0 1.707-.73 1.707-1.662 0-.933-.755-1.671-1.707-1.671-.952 0-1.706.738-1.706 1.67z"/></g><g filter="url(#a)"><path fill="none" stroke="#21b784" stroke-opacity=".9" d="M36 7v45l-14.5-9.755L7 52V7zM8.706 48.825L21.5 40.217l12.796 8.608V8.673H8.705zm21.262-32.973a.825.825 0 01-.187.925L14.422 31.804a.865.865 0 01-.83.228.844.844 0 01-.61-.599.825.825 0 01.238-.812l15.35-15.022a.865.865 0 01.586-.254c.35-.01.673.191.811.506zm-10.174 2.84c0 1.834-1.538 3.341-3.411 3.341-1.874 0-3.414-1.507-3.414-3.34 0-1.835 1.54-3.34 3.414-3.34 1.873 0 3.411 1.505 3.411 3.34zm-5.12 0c0 .932.757 1.67 1.709 1.67.951 0 1.705-.738 1.705-1.67 0-.932-.754-1.669-1.705-1.669-.952 0-1.708.737-1.708 1.67zm15.359 10.02c0 1.835-1.54 3.335-3.413 3.335-1.874 0-3.412-1.5-3.412-3.334 0-1.835 1.538-3.34 3.412-3.34 1.873 0 3.413 1.505 3.413 3.34zm-5.12 0c0 .932.755 1.663 1.707 1.663.952 0 1.707-.73 1.707-1.662 0-.933-.755-1.671-1.707-1.671-.952 0-1.706.738-1.706 1.67z" mask="url(&quot;#b&quot;)"/><path fill="#21b784" fill-opacity=".9" d="M36 7v45l-14.5-9.755L7 52V7zM8.706 48.825L21.5 40.217l12.796 8.608V8.673H8.705zm21.262-32.973a.825.825 0 01-.187.925L14.422 31.804a.865.865 0 01-.83.228.844.844 0 01-.61-.599.825.825 0 01.238-.812l15.35-15.022a.865.865 0 01.586-.254c.35-.01.673.191.811.506zm-10.174 2.84c0 1.834-1.538 3.341-3.411 3.341-1.874 0-3.414-1.507-3.414-3.34 0-1.835 1.54-3.34 3.414-3.34 1.873 0 3.411 1.505 3.411 3.34zm-5.12 0c0 .932.757 1.67 1.709 1.67.951 0 1.705-.738 1.705-1.67 0-.932-.754-1.669-1.705-1.669-.952 0-1.708.737-1.708 1.67zm15.359 10.02c0 1.835-1.54 3.335-3.413 3.335-1.874 0-3.412-1.5-3.412-3.334 0-1.835 1.538-3.34 3.412-3.34 1.873 0 3.413 1.505 3.413 3.34zm-5.12 0c0 .932.755 1.663 1.707 1.663.952 0 1.707-.73 1.707-1.662 0-.933-.755-1.671-1.707-1.671-.952 0-1.706.738-1.706 1.67z"/></g><path fill="#fff" d="M36 7v45l-14.5-9.755L7 52V7zM8.706 48.825L21.5 40.217l12.796 8.608V8.673H8.705zm21.262-32.973a.825.825 0 01-.187.925L14.422 31.804a.865.865 0 01-.83.228.844.844 0 01-.61-.599.825.825 0 01.238-.812l15.35-15.022a.865.865 0 01.586-.254c.35-.01.673.191.811.506zm-10.174 2.84c0 1.834-1.538 3.341-3.411 3.341-1.874 0-3.414-1.507-3.414-3.34 0-1.835 1.54-3.34 3.414-3.34 1.873 0 3.411 1.505 3.411 3.34zm-5.12 0c0 .932.757 1.67 1.709 1.67.951 0 1.705-.738 1.705-1.67 0-.932-.754-1.669-1.705-1.669-.952 0-1.708.737-1.708 1.67zm15.359 10.02c0 1.835-1.54 3.335-3.413 3.335-1.874 0-3.412-1.5-3.412-3.334 0-1.835 1.538-3.34 3.412-3.34 1.873 0 3.413 1.505 3.413 3.34zm-5.12 0c0 .932.755 1.663 1.707 1.663.952 0 1.707-.73 1.707-1.662 0-.933-.755-1.671-1.707-1.671-.952 0-1.706.738-1.706 1.67z"/></svg>