<svg xmlns="http://www.w3.org/2000/svg" width="65" height="65" viewBox="0 0 65 65"><defs><filter id="a" width="89.2" height="89.2" x="-12.1" y="-12.1" filterUnits="userSpaceOnUse"><feOffset in="SourceGraphic" result="FeOffset1245Out"/><feGaussianBlur in="FeOffset1245Out" result="FeGaussianBlur1246Out" stdDeviation="3.44 3.44"/></filter><mask id="b" width="2.02" height="2.02" x="-1.01" y="-1.01"><path fill="#fff" d="M6.5 6.5h52v52h-52z"/><path d="M32.826 7.102l3.06 2.084 3.603-.761a.58.58 0 01.598.254l2.028 3.097 3.603.67c.24.042.428.23.47.47l.67 3.605 3.097 2.028a.58.58 0 01.253.598l-.76 3.604 2.082 3.06a.58.58 0 010 .652l-2.082 3.062.76 3.585a.58.58 0 01-.253.598l-2.1 1.377 10.048 15.647a.578.578 0 01-.597.887l-8.166-1.63-2.173 7.588a.58.58 0 01-1.05.145l-8.6-14.344-1.431-.307-3.06 2.083a.583.583 0 01-.326.108.582.582 0 01-.326-.108l-3.06-2.083-1.43.307-8.6 14.344a.58.58 0 01-1.051-.145L15.86 49.99l-8.166 1.63a.58.58 0 01-.597-.887l10.067-15.647-2.1-1.377a.58.58 0 01-.254-.598l.76-3.585-2.082-3.062a.58.58 0 010-.652l2.082-3.06-.76-3.604a.58.58 0 01.253-.598l3.097-2.028.67-3.605a.579.579 0 01.47-.47l3.604-.67 2.01-3.097a.58.58 0 01.597-.254l3.603.76 3.06-2.083a.583.583 0 01.652 0zm-3.241 3.17c-.132.092-.296.124-.453.092l-3.458-.707-1.92 2.952a.582.582 0 01-.38.253l-3.476.652-.652 3.477a.58.58 0 01-.253.38L16.04 19.31l.706 3.459a.579.579 0 01-.09.452l-1.992 2.916 1.992 2.916a.58.58 0 01.09.453l-.706 3.442 2.952 1.937a.58.58 0 01.253.38l.652 3.477 3.476.653c.156.028.294.12.38.253l1.92 2.952 3.458-.706a.578.578 0 01.453.09l2.915 1.992 2.915-1.992a.578.578 0 01.453-.09l3.458.706 1.938-2.952a.578.578 0 01.38-.254l3.476-.652.652-3.477a.58.58 0 01.254-.38l2.951-1.937-.706-3.442a.579.579 0 01.09-.453l1.992-2.916-1.992-2.916a.578.578 0 01-.09-.452l.706-3.46-2.951-1.937a.58.58 0 01-.254-.381l-.652-3.477-3.476-.652a.582.582 0 01-.38-.253l-1.938-2.952-3.458.707a.584.584 0 01-.453-.092L32.5 8.28zm2.825 4.853a.584.584 0 01.615.327l3.078 6.194 6.917 1.014a.575.575 0 01.326.978l-5.016 4.818 1.195 6.845a.579.579 0 01-.851.616L32.5 32.676l-6.174 3.243a.59.59 0 01-.36.051.578.578 0 01-.473-.668l1.177-6.845-4.998-4.818a.575.575 0 01.308-.978l6.917-.996 3.078-6.212a.582.582 0 01.435-.327zm-2.608 7.318a.582.582 0 01-.434.308l-6.066.869 4.4 4.238c.14.137.201.334.163.525l-1.032 5.958 5.395-2.825c.17-.09.374-.09.544 0l5.395 2.825-1.014-5.958a.576.576 0 01.145-.525l4.4-4.238-6.047-.87a.581.581 0 01-.435-.307L32.5 17.01zM18.123 35.717l-9.306 14.49 7.351-1.467a.579.579 0 01.67.416l1.955 6.828 7.37-12.298-.652.146a.58.58 0 01-.598-.254l-2.01-3.097-3.603-.67a.58.58 0 01-.47-.47l-.67-3.605-.037-.018zm28.754 0l-.019.02-.67 3.603a.58.58 0 01-.47.471l-3.603.67-2.028 3.097a.58.58 0 01-.598.254l-.652-.145 7.37 12.297 1.955-6.828a.58.58 0 01.67-.416l7.351 1.466z"/></mask></defs><g filter="url(#a)"><path fill="none" stroke="#21b784" stroke-opacity=".9" d="M32.826 7.102l3.06 2.084 3.603-.761a.58.58 0 01.598.254l2.028 3.097 3.603.67c.24.042.428.23.47.47l.67 3.605 3.097 2.028a.58.58 0 01.253.598l-.76 3.604 2.082 3.06a.58.58 0 010 .652l-2.082 3.062.76 3.585a.58.58 0 01-.253.598l-2.1 1.377 10.048 15.647a.578.578 0 01-.597.887l-8.166-1.63-2.173 7.588a.58.58 0 01-1.05.145l-8.6-14.344-1.431-.307-3.06 2.083a.583.583 0 01-.326.108.582.582 0 01-.326-.108l-3.06-2.083-1.43.307-8.6 14.344a.58.58 0 01-1.051-.145L15.86 49.99l-8.166 1.63a.58.58 0 01-.597-.887l10.067-15.647-2.1-1.377a.58.58 0 01-.254-.598l.76-3.585-2.082-3.062a.58.58 0 010-.652l2.082-3.06-.76-3.604a.58.58 0 01.253-.598l3.097-2.028.67-3.605a.579.579 0 01.47-.47l3.604-.67 2.01-3.097a.58.58 0 01.597-.254l3.603.76 3.06-2.083a.583.583 0 01.652 0zm-3.241 3.17c-.132.092-.296.124-.453.092l-3.458-.707-1.92 2.952a.582.582 0 01-.38.253l-3.476.652-.652 3.477a.58.58 0 01-.253.38L16.04 19.31l.706 3.459a.579.579 0 01-.09.452l-1.992 2.916 1.992 2.916a.58.58 0 01.09.453l-.706 3.442 2.952 1.937a.58.58 0 01.253.38l.652 3.477 3.476.653c.156.028.294.12.38.253l1.92 2.952 3.458-.706a.578.578 0 01.453.09l2.915 1.992 2.915-1.992a.578.578 0 01.453-.09l3.458.706 1.938-2.952a.578.578 0 01.38-.254l3.476-.652.652-3.477a.58.58 0 01.254-.38l2.951-1.937-.706-3.442a.579.579 0 01.09-.453l1.992-2.916-1.992-2.916a.578.578 0 01-.09-.452l.706-3.46-2.951-1.937a.58.58 0 01-.254-.381l-.652-3.477-3.476-.652a.582.582 0 01-.38-.253l-1.938-2.952-3.458.707a.584.584 0 01-.453-.092L32.5 8.28zm2.825 4.853a.584.584 0 01.615.327l3.078 6.194 6.917 1.014a.575.575 0 01.326.978l-5.016 4.818 1.195 6.845a.579.579 0 01-.851.616L32.5 32.676l-6.174 3.243a.59.59 0 01-.36.051.578.578 0 01-.473-.668l1.177-6.845-4.998-4.818a.575.575 0 01.308-.978l6.917-.996 3.078-6.212a.582.582 0 01.435-.327zm-2.608 7.318a.582.582 0 01-.434.308l-6.066.869 4.4 4.238c.14.137.201.334.163.525l-1.032 5.958 5.395-2.825c.17-.09.374-.09.544 0l5.395 2.825-1.014-5.958a.576.576 0 01.145-.525l4.4-4.238-6.047-.87a.581.581 0 01-.435-.307L32.5 17.01zM18.123 35.717l-9.306 14.49 7.351-1.467a.579.579 0 01.67.416l1.955 6.828 7.37-12.298-.652.146a.58.58 0 01-.598-.254l-2.01-3.097-3.603-.67a.58.58 0 01-.47-.47l-.67-3.605-.037-.018zm28.754 0l-.019.02-.67 3.603a.58.58 0 01-.47.471l-3.603.67-2.028 3.097a.58.58 0 01-.598.254l-.652-.145 7.37 12.297 1.955-6.828a.58.58 0 01.67-.416l7.351 1.466z" mask="url(&quot;#b&quot;)"/><path fill="#21b784" fill-opacity=".9" d="M32.826 7.102l3.06 2.084 3.603-.761a.58.58 0 01.598.254l2.028 3.097 3.603.67c.24.042.428.23.47.47l.67 3.605 3.097 2.028a.58.58 0 01.253.598l-.76 3.604 2.082 3.06a.58.58 0 010 .652l-2.082 3.062.76 3.585a.58.58 0 01-.253.598l-2.1 1.377 10.048 15.647a.578.578 0 01-.597.887l-8.166-1.63-2.173 7.588a.58.58 0 01-1.05.145l-8.6-14.344-1.431-.307-3.06 2.083a.583.583 0 01-.326.108.582.582 0 01-.326-.108l-3.06-2.083-1.43.307-8.6 14.344a.58.58 0 01-1.051-.145L15.86 49.99l-8.166 1.63a.58.58 0 01-.597-.887l10.067-15.647-2.1-1.377a.58.58 0 01-.254-.598l.76-3.585-2.082-3.062a.58.58 0 010-.652l2.082-3.06-.76-3.604a.58.58 0 01.253-.598l3.097-2.028.67-3.605a.579.579 0 01.47-.47l3.604-.67 2.01-3.097a.58.58 0 01.597-.254l3.603.76 3.06-2.083a.583.583 0 01.652 0zm-3.241 3.17c-.132.092-.296.124-.453.092l-3.458-.707-1.92 2.952a.582.582 0 01-.38.253l-3.476.652-.652 3.477a.58.58 0 01-.253.38L16.04 19.31l.706 3.459a.579.579 0 01-.09.452l-1.992 2.916 1.992 2.916a.58.58 0 01.09.453l-.706 3.442 2.952 1.937a.58.58 0 01.253.38l.652 3.477 3.476.653c.156.028.294.12.38.253l1.92 2.952 3.458-.706a.578.578 0 01.453.09l2.915 1.992 2.915-1.992a.578.578 0 01.453-.09l3.458.706 1.938-2.952a.578.578 0 01.38-.254l3.476-.652.652-3.477a.58.58 0 01.254-.38l2.951-1.937-.706-3.442a.579.579 0 01.09-.453l1.992-2.916-1.992-2.916a.578.578 0 01-.09-.452l.706-3.46-2.951-1.937a.58.58 0 01-.254-.381l-.652-3.477-3.476-.652a.582.582 0 01-.38-.253l-1.938-2.952-3.458.707a.584.584 0 01-.453-.092L32.5 8.28zm2.825 4.853a.584.584 0 01.615.327l3.078 6.194 6.917 1.014a.575.575 0 01.326.978l-5.016 4.818 1.195 6.845a.579.579 0 01-.851.616L32.5 32.676l-6.174 3.243a.59.59 0 01-.36.051.578.578 0 01-.473-.668l1.177-6.845-4.998-4.818a.575.575 0 01.308-.978l6.917-.996 3.078-6.212a.582.582 0 01.435-.327zm-2.608 7.318a.582.582 0 01-.434.308l-6.066.869 4.4 4.238c.14.137.201.334.163.525l-1.032 5.958 5.395-2.825c.17-.09.374-.09.544 0l5.395 2.825-1.014-5.958a.576.576 0 01.145-.525l4.4-4.238-6.047-.87a.581.581 0 01-.435-.307L32.5 17.01zM18.123 35.717l-9.306 14.49 7.351-1.467a.579.579 0 01.67.416l1.955 6.828 7.37-12.298-.652.146a.58.58 0 01-.598-.254l-2.01-3.097-3.603-.67a.58.58 0 01-.47-.47l-.67-3.605-.037-.018zm28.754 0l-.019.02-.67 3.603a.58.58 0 01-.47.471l-3.603.67-2.028 3.097a.58.58 0 01-.598.254l-.652-.145 7.37 12.297 1.955-6.828a.58.58 0 01.67-.416l7.351 1.466z"/></g><g filter="url(#a)"><path fill="none" stroke="#21b784" stroke-opacity=".9" d="M32.826 7.102l3.06 2.084 3.603-.761a.58.58 0 01.598.254l2.028 3.097 3.603.67c.24.042.428.23.47.47l.67 3.605 3.097 2.028a.58.58 0 01.253.598l-.76 3.604 2.082 3.06a.58.58 0 010 .652l-2.082 3.062.76 3.585a.58.58 0 01-.253.598l-2.1 1.377 10.048 15.647a.578.578 0 01-.597.887l-8.166-1.63-2.173 7.588a.58.58 0 01-1.05.145l-8.6-14.344-1.431-.307-3.06 2.083a.583.583 0 01-.326.108.582.582 0 01-.326-.108l-3.06-2.083-1.43.307-8.6 14.344a.58.58 0 01-1.051-.145L15.86 49.99l-8.166 1.63a.58.58 0 01-.597-.887l10.067-15.647-2.1-1.377a.58.58 0 01-.254-.598l.76-3.585-2.082-3.062a.58.58 0 010-.652l2.082-3.06-.76-3.604a.58.58 0 01.253-.598l3.097-2.028.67-3.605a.579.579 0 01.47-.47l3.604-.67 2.01-3.097a.58.58 0 01.597-.254l3.603.76 3.06-2.083a.583.583 0 01.652 0zm-3.241 3.17c-.132.092-.296.124-.453.092l-3.458-.707-1.92 2.952a.582.582 0 01-.38.253l-3.476.652-.652 3.477a.58.58 0 01-.253.38L16.04 19.31l.706 3.459a.579.579 0 01-.09.452l-1.992 2.916 1.992 2.916a.58.58 0 01.09.453l-.706 3.442 2.952 1.937a.58.58 0 01.253.38l.652 3.477 3.476.653c.156.028.294.12.38.253l1.92 2.952 3.458-.706a.578.578 0 01.453.09l2.915 1.992 2.915-1.992a.578.578 0 01.453-.09l3.458.706 1.938-2.952a.578.578 0 01.38-.254l3.476-.652.652-3.477a.58.58 0 01.254-.38l2.951-1.937-.706-3.442a.579.579 0 01.09-.453l1.992-2.916-1.992-2.916a.578.578 0 01-.09-.452l.706-3.46-2.951-1.937a.58.58 0 01-.254-.381l-.652-3.477-3.476-.652a.582.582 0 01-.38-.253l-1.938-2.952-3.458.707a.584.584 0 01-.453-.092L32.5 8.28zm2.825 4.853a.584.584 0 01.615.327l3.078 6.194 6.917 1.014a.575.575 0 01.326.978l-5.016 4.818 1.195 6.845a.579.579 0 01-.851.616L32.5 32.676l-6.174 3.243a.59.59 0 01-.36.051.578.578 0 01-.473-.668l1.177-6.845-4.998-4.818a.575.575 0 01.308-.978l6.917-.996 3.078-6.212a.582.582 0 01.435-.327zm-2.608 7.318a.582.582 0 01-.434.308l-6.066.869 4.4 4.238c.14.137.201.334.163.525l-1.032 5.958 5.395-2.825c.17-.09.374-.09.544 0l5.395 2.825-1.014-5.958a.576.576 0 01.145-.525l4.4-4.238-6.047-.87a.581.581 0 01-.435-.307L32.5 17.01zM18.123 35.717l-9.306 14.49 7.351-1.467a.579.579 0 01.67.416l1.955 6.828 7.37-12.298-.652.146a.58.58 0 01-.598-.254l-2.01-3.097-3.603-.67a.58.58 0 01-.47-.47l-.67-3.605-.037-.018zm28.754 0l-.019.02-.67 3.603a.58.58 0 01-.47.471l-3.603.67-2.028 3.097a.58.58 0 01-.598.254l-.652-.145 7.37 12.297 1.955-6.828a.58.58 0 01.67-.416l7.351 1.466z" mask="url(&quot;#b&quot;)"/><path fill="#21b784" fill-opacity=".9" d="M32.826 7.102l3.06 2.084 3.603-.761a.58.58 0 01.598.254l2.028 3.097 3.603.67c.24.042.428.23.47.47l.67 3.605 3.097 2.028a.58.58 0 01.253.598l-.76 3.604 2.082 3.06a.58.58 0 010 .652l-2.082 3.062.76 3.585a.58.58 0 01-.253.598l-2.1 1.377 10.048 15.647a.578.578 0 01-.597.887l-8.166-1.63-2.173 7.588a.58.58 0 01-1.05.145l-8.6-14.344-1.431-.307-3.06 2.083a.583.583 0 01-.326.108.582.582 0 01-.326-.108l-3.06-2.083-1.43.307-8.6 14.344a.58.58 0 01-1.051-.145L15.86 49.99l-8.166 1.63a.58.58 0 01-.597-.887l10.067-15.647-2.1-1.377a.58.58 0 01-.254-.598l.76-3.585-2.082-3.062a.58.58 0 010-.652l2.082-3.06-.76-3.604a.58.58 0 01.253-.598l3.097-2.028.67-3.605a.579.579 0 01.47-.47l3.604-.67 2.01-3.097a.58.58 0 01.597-.254l3.603.76 3.06-2.083a.583.583 0 01.652 0zm-3.241 3.17c-.132.092-.296.124-.453.092l-3.458-.707-1.92 2.952a.582.582 0 01-.38.253l-3.476.652-.652 3.477a.58.58 0 01-.253.38L16.04 19.31l.706 3.459a.579.579 0 01-.09.452l-1.992 2.916 1.992 2.916a.58.58 0 01.09.453l-.706 3.442 2.952 1.937a.58.58 0 01.253.38l.652 3.477 3.476.653c.156.028.294.12.38.253l1.92 2.952 3.458-.706a.578.578 0 01.453.09l2.915 1.992 2.915-1.992a.578.578 0 01.453-.09l3.458.706 1.938-2.952a.578.578 0 01.38-.254l3.476-.652.652-3.477a.58.58 0 01.254-.38l2.951-1.937-.706-3.442a.579.579 0 01.09-.453l1.992-2.916-1.992-2.916a.578.578 0 01-.09-.452l.706-3.46-2.951-1.937a.58.58 0 01-.254-.381l-.652-3.477-3.476-.652a.582.582 0 01-.38-.253l-1.938-2.952-3.458.707a.584.584 0 01-.453-.092L32.5 8.28zm2.825 4.853a.584.584 0 01.615.327l3.078 6.194 6.917 1.014a.575.575 0 01.326.978l-5.016 4.818 1.195 6.845a.579.579 0 01-.851.616L32.5 32.676l-6.174 3.243a.59.59 0 01-.36.051.578.578 0 01-.473-.668l1.177-6.845-4.998-4.818a.575.575 0 01.308-.978l6.917-.996 3.078-6.212a.582.582 0 01.435-.327zm-2.608 7.318a.582.582 0 01-.434.308l-6.066.869 4.4 4.238c.14.137.201.334.163.525l-1.032 5.958 5.395-2.825c.17-.09.374-.09.544 0l5.395 2.825-1.014-5.958a.576.576 0 01.145-.525l4.4-4.238-6.047-.87a.581.581 0 01-.435-.307L32.5 17.01zM18.123 35.717l-9.306 14.49 7.351-1.467a.579.579 0 01.67.416l1.955 6.828 7.37-12.298-.652.146a.58.58 0 01-.598-.254l-2.01-3.097-3.603-.67a.58.58 0 01-.47-.47l-.67-3.605-.037-.018zm28.754 0l-.019.02-.67 3.603a.58.58 0 01-.47.471l-3.603.67-2.028 3.097a.58.58 0 01-.598.254l-.652-.145 7.37 12.297 1.955-6.828a.58.58 0 01.67-.416l7.351 1.466z"/></g><path fill="#fff" d="M32.826 7.102l3.06 2.084 3.603-.761a.58.58 0 01.598.254l2.028 3.097 3.603.67c.24.042.428.23.47.47l.67 3.605 3.097 2.028a.58.58 0 01.253.598l-.76 3.604 2.082 3.06a.58.58 0 010 .652l-2.082 3.062.76 3.585a.58.58 0 01-.253.598l-2.1 1.377 10.048 15.647a.578.578 0 01-.597.887l-8.166-1.63-2.173 7.588a.58.58 0 01-1.05.145l-8.6-14.344-1.431-.307-3.06 2.083a.583.583 0 01-.326.108.582.582 0 01-.326-.108l-3.06-2.083-1.43.307-8.6 14.344a.58.58 0 01-1.051-.145L15.86 49.99l-8.166 1.63a.58.58 0 01-.597-.887l10.067-15.647-2.1-1.377a.58.58 0 01-.254-.598l.76-3.585-2.082-3.062a.58.58 0 010-.652l2.082-3.06-.76-3.604a.58.58 0 01.253-.598l3.097-2.028.67-3.605a.579.579 0 01.47-.47l3.604-.67 2.01-3.097a.58.58 0 01.597-.254l3.603.76 3.06-2.083a.583.583 0 01.652 0zm-3.241 3.17c-.132.092-.296.124-.453.092l-3.458-.707-1.92 2.952a.582.582 0 01-.38.253l-3.476.652-.652 3.477a.58.58 0 01-.253.38L16.04 19.31l.706 3.459a.579.579 0 01-.09.452l-1.992 2.916 1.992 2.916a.58.58 0 01.09.453l-.706 3.442 2.952 1.937a.58.58 0 01.253.38l.652 3.477 3.476.653c.156.028.294.12.38.253l1.92 2.952 3.458-.706a.578.578 0 01.453.09l2.915 1.992 2.915-1.992a.578.578 0 01.453-.09l3.458.706 1.938-2.952a.578.578 0 01.38-.254l3.476-.652.652-3.477a.58.58 0 01.254-.38l2.951-1.937-.706-3.442a.579.579 0 01.09-.453l1.992-2.916-1.992-2.916a.578.578 0 01-.09-.452l.706-3.46-2.951-1.937a.58.58 0 01-.254-.381l-.652-3.477-3.476-.652a.582.582 0 01-.38-.253l-1.938-2.952-3.458.707a.584.584 0 01-.453-.092L32.5 8.28zm2.825 4.853a.584.584 0 01.615.327l3.078 6.194 6.917 1.014a.575.575 0 01.326.978l-5.016 4.818 1.195 6.845a.579.579 0 01-.851.616L32.5 32.676l-6.174 3.243a.59.59 0 01-.36.051.578.578 0 01-.473-.668l1.177-6.845-4.998-4.818a.575.575 0 01.308-.978l6.917-.996 3.078-6.212a.582.582 0 01.435-.327zm-2.608 7.318a.582.582 0 01-.434.308l-6.066.869 4.4 4.238c.14.137.201.334.163.525l-1.032 5.958 5.395-2.825c.17-.09.374-.09.544 0l5.395 2.825-1.014-5.958a.576.576 0 01.145-.525l4.4-4.238-6.047-.87a.581.581 0 01-.435-.307L32.5 17.01zM18.123 35.717l-9.306 14.49 7.351-1.467a.579.579 0 01.67.416l1.955 6.828 7.37-12.298-.652.146a.58.58 0 01-.598-.254l-2.01-3.097-3.603-.67a.58.58 0 01-.47-.47l-.67-3.605-.037-.018zm28.754 0l-.019.02-.67 3.603a.58.58 0 01-.47.471l-3.603.67-2.028 3.097a.58.58 0 01-.598.254l-.652-.145 7.37 12.297 1.955-6.828a.58.58 0 01.67-.416l7.351 1.466z"/></svg>